<mxfile host="app.diagrams.net" modified="2021-11-05T17:24:02.373Z" agent="5.0 (Windows NT 10.0; Win64; x64) AppleWebKit/537.36 (KHTML, like Gecko) Chrome/95.0.4638.54 Safari/537.36" etag="xpTdxMURm09hcryf-MBs" version="15.6.8" type="github">
  <diagram id="Ow-y5KdhZIAKM9fns4OR" name="Page-1">
    <mxGraphModel dx="2029" dy="1986" grid="1" gridSize="10" guides="1" tooltips="1" connect="1" arrows="1" fold="1" page="1" pageScale="1" pageWidth="850" pageHeight="1100" math="0" shadow="0">
      <root>
        <mxCell id="0" />
        <mxCell id="1" parent="0" />
        <mxCell id="UBKyX6ONuDjWLg3V_zT5-9" value="" style="swimlane;startSize=0;fontSize=16;" vertex="1" parent="1">
          <mxGeometry x="315" y="115" width="190" height="140" as="geometry" />
        </mxCell>
        <mxCell id="UBKyX6ONuDjWLg3V_zT5-10" value="Back-End" style="text;html=1;align=center;verticalAlign=middle;resizable=0;points=[];autosize=1;strokeColor=none;fillColor=none;fontSize=12;" vertex="1" parent="UBKyX6ONuDjWLg3V_zT5-9">
          <mxGeometry y="60" width="70" height="20" as="geometry" />
        </mxCell>
        <mxCell id="UBKyX6ONuDjWLg3V_zT5-3" value="&lt;font style=&quot;font-size: 24px&quot;&gt;Use Case Subscriber Request&lt;/font&gt;" style="text;html=1;strokeColor=none;fillColor=none;align=center;verticalAlign=middle;whiteSpace=wrap;rounded=0;fontSize=30;" vertex="1" parent="1">
          <mxGeometry x="620" y="-90" width="220" height="30" as="geometry" />
        </mxCell>
        <mxCell id="UBKyX6ONuDjWLg3V_zT5-4" value="&lt;font style=&quot;font-size: 16px&quot;&gt;Subscriber&lt;/font&gt;" style="shape=umlActor;verticalLabelPosition=bottom;verticalAlign=top;html=1;outlineConnect=0;fontSize=24;" vertex="1" parent="1">
          <mxGeometry x="780" y="140" width="40" height="90" as="geometry" />
        </mxCell>
        <mxCell id="UBKyX6ONuDjWLg3V_zT5-6" value="" style="endArrow=classic;html=1;rounded=0;fontSize=16;entryX=1;entryY=0.5;entryDx=0;entryDy=0;" edge="1" parent="1" source="UBKyX6ONuDjWLg3V_zT5-4" target="UBKyX6ONuDjWLg3V_zT5-8">
          <mxGeometry width="50" height="50" relative="1" as="geometry">
            <mxPoint x="550" y="240" as="sourcePoint" />
            <mxPoint x="570" y="180" as="targetPoint" />
          </mxGeometry>
        </mxCell>
        <mxCell id="UBKyX6ONuDjWLg3V_zT5-8" value="Front-End" style="whiteSpace=wrap;html=1;aspect=fixed;fontSize=16;" vertex="1" parent="1">
          <mxGeometry x="395" y="115" width="140" height="140" as="geometry" />
        </mxCell>
        <mxCell id="UBKyX6ONuDjWLg3V_zT5-11" value="iAuthenticate Application" style="text;html=1;strokeColor=none;fillColor=none;align=center;verticalAlign=middle;whiteSpace=wrap;rounded=0;fontSize=12;" vertex="1" parent="1">
          <mxGeometry x="415" y="80" width="100" height="30" as="geometry" />
        </mxCell>
        <mxCell id="UBKyX6ONuDjWLg3V_zT5-12" value="&lt;b&gt;Step 1&lt;/b&gt;" style="text;html=1;strokeColor=none;fillColor=none;align=center;verticalAlign=middle;whiteSpace=wrap;rounded=0;fontSize=12;" vertex="1" parent="1">
          <mxGeometry x="570" y="150" width="60" height="30" as="geometry" />
        </mxCell>
        <mxCell id="UBKyX6ONuDjWLg3V_zT5-14" value="Makes Education History Request" style="text;html=1;strokeColor=none;fillColor=none;align=center;verticalAlign=middle;whiteSpace=wrap;rounded=0;fontSize=12;" vertex="1" parent="1">
          <mxGeometry x="620" y="150" width="130" height="30" as="geometry" />
        </mxCell>
        <mxCell id="UBKyX6ONuDjWLg3V_zT5-17" value="" style="endArrow=classic;startArrow=classic;html=1;rounded=0;fontSize=12;exitX=1;exitY=0.75;exitDx=0;exitDy=0;" edge="1" parent="1" source="UBKyX6ONuDjWLg3V_zT5-8">
          <mxGeometry width="50" height="50" relative="1" as="geometry">
            <mxPoint x="410" y="240" as="sourcePoint" />
            <mxPoint x="780" y="220" as="targetPoint" />
          </mxGeometry>
        </mxCell>
        <mxCell id="UBKyX6ONuDjWLg3V_zT5-21" value="&lt;b&gt;Step 3&lt;/b&gt;" style="text;html=1;strokeColor=none;fillColor=none;align=center;verticalAlign=middle;whiteSpace=wrap;rounded=0;fontSize=12;" vertex="1" parent="1">
          <mxGeometry x="570" y="225" width="60" height="30" as="geometry" />
        </mxCell>
        <mxCell id="UBKyX6ONuDjWLg3V_zT5-22" value="Multi-Factor Authentication" style="text;html=1;strokeColor=none;fillColor=none;align=center;verticalAlign=middle;whiteSpace=wrap;rounded=0;fontSize=12;" vertex="1" parent="1">
          <mxGeometry x="620" y="225" width="130" height="30" as="geometry" />
        </mxCell>
        <mxCell id="UBKyX6ONuDjWLg3V_zT5-32" value="Report Object" style="swimlane;fontStyle=0;childLayout=stackLayout;horizontal=1;startSize=30;horizontalStack=0;resizeParent=1;resizeParentMax=0;resizeLast=0;collapsible=1;marginBottom=0;fontSize=12;" vertex="1" parent="1">
          <mxGeometry x="-10" y="80" width="140" height="210" as="geometry" />
        </mxCell>
        <mxCell id="UBKyX6ONuDjWLg3V_zT5-33" value="Subscriber ID" style="text;strokeColor=none;fillColor=none;align=left;verticalAlign=middle;spacingLeft=4;spacingRight=4;overflow=hidden;points=[[0,0.5],[1,0.5]];portConstraint=eastwest;rotatable=0;fontSize=12;" vertex="1" parent="UBKyX6ONuDjWLg3V_zT5-32">
          <mxGeometry y="30" width="140" height="30" as="geometry" />
        </mxCell>
        <mxCell id="UBKyX6ONuDjWLg3V_zT5-34" value="Subscriber Name" style="text;strokeColor=none;fillColor=none;align=left;verticalAlign=middle;spacingLeft=4;spacingRight=4;overflow=hidden;points=[[0,0.5],[1,0.5]];portConstraint=eastwest;rotatable=0;fontSize=12;" vertex="1" parent="UBKyX6ONuDjWLg3V_zT5-32">
          <mxGeometry y="60" width="140" height="30" as="geometry" />
        </mxCell>
        <mxCell id="UBKyX6ONuDjWLg3V_zT5-36" value="Candidate Name" style="text;strokeColor=none;fillColor=none;align=left;verticalAlign=middle;spacingLeft=4;spacingRight=4;overflow=hidden;points=[[0,0.5],[1,0.5]];portConstraint=eastwest;rotatable=0;fontSize=12;" vertex="1" parent="UBKyX6ONuDjWLg3V_zT5-32">
          <mxGeometry y="90" width="140" height="30" as="geometry" />
        </mxCell>
        <mxCell id="UBKyX6ONuDjWLg3V_zT5-37" value="Subscriber Company" style="text;strokeColor=none;fillColor=none;align=left;verticalAlign=middle;spacingLeft=4;spacingRight=4;overflow=hidden;points=[[0,0.5],[1,0.5]];portConstraint=eastwest;rotatable=0;fontSize=12;" vertex="1" parent="UBKyX6ONuDjWLg3V_zT5-32">
          <mxGeometry y="120" width="140" height="30" as="geometry" />
        </mxCell>
        <mxCell id="UBKyX6ONuDjWLg3V_zT5-47" value="Authenticated Flag" style="text;strokeColor=none;fillColor=none;align=left;verticalAlign=middle;spacingLeft=4;spacingRight=4;overflow=hidden;points=[[0,0.5],[1,0.5]];portConstraint=eastwest;rotatable=0;fontSize=12;" vertex="1" parent="UBKyX6ONuDjWLg3V_zT5-32">
          <mxGeometry y="150" width="140" height="30" as="geometry" />
        </mxCell>
        <mxCell id="UBKyX6ONuDjWLg3V_zT5-38" value="...." style="text;strokeColor=none;fillColor=none;align=left;verticalAlign=middle;spacingLeft=4;spacingRight=4;overflow=hidden;points=[[0,0.5],[1,0.5]];portConstraint=eastwest;rotatable=0;fontSize=12;" vertex="1" parent="UBKyX6ONuDjWLg3V_zT5-32">
          <mxGeometry y="180" width="140" height="30" as="geometry" />
        </mxCell>
        <mxCell id="UBKyX6ONuDjWLg3V_zT5-39" value="" style="endArrow=classic;html=1;rounded=0;fontSize=16;entryX=1;entryY=0.5;entryDx=0;entryDy=0;exitX=0;exitY=0.5;exitDx=0;exitDy=0;" edge="1" parent="1" source="UBKyX6ONuDjWLg3V_zT5-9" target="UBKyX6ONuDjWLg3V_zT5-36">
          <mxGeometry width="50" height="50" relative="1" as="geometry">
            <mxPoint x="375" y="200" as="sourcePoint" />
            <mxPoint x="130" y="200" as="targetPoint" />
          </mxGeometry>
        </mxCell>
        <mxCell id="UBKyX6ONuDjWLg3V_zT5-40" value="&lt;b&gt;Step 2&lt;/b&gt;" style="text;html=1;strokeColor=none;fillColor=none;align=center;verticalAlign=middle;whiteSpace=wrap;rounded=0;fontSize=12;" vertex="1" parent="1">
          <mxGeometry x="140" y="150" width="60" height="30" as="geometry" />
        </mxCell>
        <mxCell id="UBKyX6ONuDjWLg3V_zT5-41" value="Report Object gets created" style="text;html=1;strokeColor=none;fillColor=none;align=center;verticalAlign=middle;whiteSpace=wrap;rounded=0;fontSize=12;" vertex="1" parent="1">
          <mxGeometry x="185" y="150" width="130" height="30" as="geometry" />
        </mxCell>
        <mxCell id="UBKyX6ONuDjWLg3V_zT5-42" value="" style="endArrow=classic;html=1;rounded=0;fontSize=16;exitX=0;exitY=0.75;exitDx=0;exitDy=0;" edge="1" parent="1" source="UBKyX6ONuDjWLg3V_zT5-9">
          <mxGeometry width="50" height="50" relative="1" as="geometry">
            <mxPoint x="375" y="230" as="sourcePoint" />
            <mxPoint x="130" y="220" as="targetPoint" />
          </mxGeometry>
        </mxCell>
        <mxCell id="UBKyX6ONuDjWLg3V_zT5-45" value="&lt;b&gt;Step 4&lt;/b&gt;" style="text;html=1;strokeColor=none;fillColor=none;align=center;verticalAlign=middle;whiteSpace=wrap;rounded=0;fontSize=12;" vertex="1" parent="1">
          <mxGeometry x="140" y="225" width="60" height="30" as="geometry" />
        </mxCell>
        <mxCell id="UBKyX6ONuDjWLg3V_zT5-46" value="Update Authenticated Flag (if needed)" style="text;html=1;strokeColor=none;fillColor=none;align=center;verticalAlign=middle;whiteSpace=wrap;rounded=0;fontSize=12;" vertex="1" parent="1">
          <mxGeometry x="185" y="230" width="130" height="30" as="geometry" />
        </mxCell>
        <mxCell id="UBKyX6ONuDjWLg3V_zT5-48" value="" style="endArrow=classic;html=1;rounded=0;fontSize=12;exitX=0.5;exitY=0;exitDx=0;exitDy=0;" edge="1" parent="1" source="UBKyX6ONuDjWLg3V_zT5-32" target="UBKyX6ONuDjWLg3V_zT5-50">
          <mxGeometry width="50" height="50" relative="1" as="geometry">
            <mxPoint x="310" y="70" as="sourcePoint" />
            <mxPoint x="60" y="-30" as="targetPoint" />
          </mxGeometry>
        </mxCell>
        <mxCell id="UBKyX6ONuDjWLg3V_zT5-50" value="Blockchain" style="shape=cube;whiteSpace=wrap;html=1;boundedLbl=1;backgroundOutline=1;darkOpacity=0.05;darkOpacity2=0.1;fontSize=12;" vertex="1" parent="1">
          <mxGeometry y="-110" width="120" height="80" as="geometry" />
        </mxCell>
        <mxCell id="UBKyX6ONuDjWLg3V_zT5-51" value="&lt;b&gt;Step 5&lt;/b&gt;" style="text;html=1;strokeColor=none;fillColor=none;align=center;verticalAlign=middle;whiteSpace=wrap;rounded=0;fontSize=12;" vertex="1" parent="1">
          <mxGeometry x="60" y="10" width="60" height="30" as="geometry" />
        </mxCell>
        <mxCell id="UBKyX6ONuDjWLg3V_zT5-52" value="Add Transaction to BlockChain" style="text;html=1;strokeColor=none;fillColor=none;align=center;verticalAlign=middle;whiteSpace=wrap;rounded=0;fontSize=12;" vertex="1" parent="1">
          <mxGeometry x="105" y="15" width="130" height="30" as="geometry" />
        </mxCell>
        <mxCell id="UBKyX6ONuDjWLg3V_zT5-53" value="" style="endArrow=classic;html=1;rounded=0;fontSize=12;exitX=0;exitY=1;exitDx=0;exitDy=0;entryX=1;entryY=0;entryDx=0;entryDy=52.5;entryPerimeter=0;" edge="1" parent="1" source="UBKyX6ONuDjWLg3V_zT5-51" target="UBKyX6ONuDjWLg3V_zT5-54">
          <mxGeometry width="50" height="50" relative="1" as="geometry">
            <mxPoint x="310" y="70" as="sourcePoint" />
            <mxPoint x="-130" y="40" as="targetPoint" />
          </mxGeometry>
        </mxCell>
        <mxCell id="UBKyX6ONuDjWLg3V_zT5-54" value="Database" style="shape=cylinder3;whiteSpace=wrap;html=1;boundedLbl=1;backgroundOutline=1;size=15;fontSize=12;" vertex="1" parent="1">
          <mxGeometry x="-210" y="-10" width="60" height="80" as="geometry" />
        </mxCell>
        <mxCell id="UBKyX6ONuDjWLg3V_zT5-56" value="&lt;b&gt;Step 6&lt;/b&gt;" style="text;html=1;strokeColor=none;fillColor=none;align=center;verticalAlign=middle;whiteSpace=wrap;rounded=0;fontSize=12;" vertex="1" parent="1">
          <mxGeometry x="-130" y="10" width="60" height="30" as="geometry" />
        </mxCell>
        <mxCell id="UBKyX6ONuDjWLg3V_zT5-57" value="Store Log" style="text;html=1;strokeColor=none;fillColor=none;align=center;verticalAlign=middle;whiteSpace=wrap;rounded=0;fontSize=12;" vertex="1" parent="1">
          <mxGeometry x="-100" y="10" width="130" height="30" as="geometry" />
        </mxCell>
      </root>
    </mxGraphModel>
  </diagram>
</mxfile>
